<svg xmlns="http://www.w3.org/2000/svg" viewBox="0 0 256 256" role="img" aria-label="TikTok Logo">
  <path fill="#69C9D0" d="M146 0h-38v120c0 18.9-15.3 34.2-34.2 34.2-18.9 0-34.2-15.3-34.2-34.2S89.1 85 108 85c6.8 0 13.2 2 18.7 5.5V69.7h37.7V0z"/>
  <path fill="#EE1D52" d="M146 0h-38v18.5c5.1 0 10.1.4 15 1.1 18.9 2.3 36.5 11.3 49.8 24.6 8.1 8.1 14.3 17.7 18.3 28.2 4.5 12.1 5.9 24.8 4.1 37.2h-40.7c1.3-5.5 1.3-11.2 0-16.7-2.8-13.8-11.3-25.8-23.4-33.6-11.1-7-24.2-10.5-37.4-9.6V18s25.3-2.4 43.9 7.3c4.2 2.1 8 4.5 11.3 7.4z"/>
  <path fill="#010101" d="M108 85v74.7c-6.9-6.9-16.5-11.3-27.4-11.3-20.4 0-37 16.5-37 37s16.6 37 37 37 37-16.5 37-37V102c12.5 0 24.5 4.9 33.1 13.5 5.2 5.2 9.1 11.2 11.7 17.8V74.7c-8.7-7.1-20.2-11.7-32.8-11.7-3.9 0-7.7.5-11.3 1.4V85z"/>
</svg>
